<svg width="57" height="57" viewBox="0 0 57 57" fill="none" xmlns="http://www.w3.org/2000/svg">
<ellipse cx="28.5" cy="28.2837" rx="28" ry="27.7958" fill="#280680"/>
<path fill-rule="evenodd" clip-rule="evenodd" d="M28.5 43.1742C36.7843 43.1742 43.5 36.5075 43.5 28.2837C43.5 20.0598 36.7843 13.3931 28.5 13.3931C20.2157 13.3931 13.5 20.0598 13.5 28.2837C13.5 36.5075 20.2157 43.1742 28.5 43.1742ZM28.5 15.8748C35.4036 15.8748 41 21.4304 41 28.2837C41 35.1369 35.4036 40.6925 28.5 40.6925C21.5964 40.6925 16 35.1369 16 28.2837C16 21.4304 21.5964 15.8748 28.5 15.8748Z" fill="white"/>
<ellipse cx="28.5" cy="28.2837" rx="6.08928" ry="6.04487" fill="#BC1313"/>
</svg>
