<svg width="161" height="161" viewBox="0 0 161 161" fill="none" xmlns="http://www.w3.org/2000/svg">
<path fill-rule="evenodd" clip-rule="evenodd" d="M99.8304 38.0951C97.6287 38.0951 95.8439 39.8799 95.8439 42.0816C95.8439 44.2833 97.6287 46.0681 99.8304 46.0681H104.114L100.345 53.4158C100.175 53.3937 100.003 53.3825 99.8304 53.3825H67.7516C67.9439 52.9151 68.05 52.4031 68.05 51.8664C68.05 49.6647 66.2652 47.8799 64.0635 47.8799H47.7522C45.5506 47.8799 43.7657 49.6647 43.7657 51.8664C43.7657 54.068 45.5506 55.8529 47.7522 55.8529H57.4728L58.155 57.2173L50.4413 70.3659C47.2714 69.0828 43.8064 68.3762 40.1764 68.3762C25.0577 68.3762 12.8015 80.6324 12.8015 95.7511C12.8015 110.87 25.0577 123.126 40.1764 123.126C53.9443 123.126 65.3383 112.962 67.2644 99.7282H76.3174V100.835H74.4718C72.2701 100.835 70.4853 102.619 70.4853 104.821C70.4853 107.023 72.2701 108.808 74.4718 108.808H85.8208C88.0224 108.808 89.8073 107.023 89.8073 104.821C89.8073 102.619 88.0224 100.835 85.8208 100.835H84.2904V96.8272L101.938 66.8238L105.004 73.1311C97.788 78.0605 93.0518 86.3527 93.0518 95.7511C93.0518 110.87 105.308 123.126 120.427 123.126C135.545 123.126 147.802 110.87 147.802 95.7511C147.802 80.6324 135.545 68.3762 120.427 68.3762C117.55 68.3762 114.778 68.8199 112.173 69.6424L106.728 58.4403L114.186 43.9011C114.82 42.6652 114.765 41.1885 114.041 40.0033C113.317 38.818 112.028 38.0951 110.639 38.0951H99.8304ZM108.543 80.413L116.841 97.4845C117.804 99.4646 120.189 100.29 122.169 99.3271C124.149 98.3647 124.974 95.9792 124.012 93.999L115.713 76.9257C117.222 76.5491 118.801 76.3492 120.427 76.3492C131.142 76.3492 139.829 85.0357 139.829 95.7511C139.829 106.466 131.142 115.153 120.427 115.153C109.711 115.153 101.025 106.466 101.025 95.7511C101.025 89.5129 103.969 83.9623 108.543 80.413ZM67.2617 91.7553H74.0873L62.256 65.9834L57.3158 74.4045C62.5754 78.6329 66.2394 84.7652 67.2617 91.7553ZM53.2193 81.3873C56.1859 84.0827 58.3141 87.6845 59.1663 91.7553H47.1369L53.2193 81.3873ZM46.344 77.3501L36.7379 93.7246C36.0147 94.9573 36.0067 96.4828 36.717 97.723C37.4273 98.9632 38.7472 99.7282 40.1763 99.7282H59.1702C57.3354 108.536 49.5286 115.153 40.1764 115.153C29.461 115.153 20.7745 106.466 20.7745 95.7511C20.7745 85.0357 29.461 76.3492 40.1764 76.3492C42.3325 76.3492 44.4064 76.7009 46.344 77.3501ZM68.9045 61.3555H95.9046L80.7402 87.137L68.9045 61.3555Z" fill="black"/>
</svg>
