<svg width="161" height="161" viewBox="0 0 161 161" fill="none" xmlns="http://www.w3.org/2000/svg">
<path fill-rule="evenodd" clip-rule="evenodd" d="M41.8163 61.1348C41.2129 62.2566 40.6047 63.3875 39.9874 64.4989C38.7438 66.7381 37.6196 68.2174 36.7517 69.3593C36.7466 69.3662 36.7414 69.373 36.7362 69.3798C39.0737 70.9659 41.5919 72.646 42.6486 73.2676C42.6383 73.2616 42.6417 73.2632 42.662 73.2726C42.7226 73.3011 42.9341 73.4002 43.381 73.5769C43.9099 73.7859 44.595 74.0368 45.4306 74.3332C46.0627 74.5575 46.8172 74.8201 47.6354 75.1048C48.8386 75.5236 50.1797 75.9903 51.4731 76.454C55.8401 78.0195 61.2468 80.0926 64.7161 82.3791C67.5864 84.2709 74.7955 88.724 81.7328 92.9234C88.7895 97.195 95.1068 100.923 96.396 101.54C96.7771 101.722 97.2805 101.984 97.8955 102.304C99.8459 103.319 102.92 104.919 106.784 106.417C111.054 108.074 115.572 109.293 119.475 109.299C120.352 109.251 121.139 109.197 121.809 109.14C123.954 108.826 125.664 108.05 126.993 106.738C128.609 105.031 128.907 104.101 128.954 103.86C128.928 103.822 128.884 103.762 128.81 103.681C128.411 103.247 127.609 102.68 126.243 102.006C125.204 101.493 124.126 101.051 122.958 100.571C122.61 100.428 122.254 100.282 121.888 100.13C120.897 99.7169 119.767 99.3799 118.535 99.0126C114.452 97.7948 109.248 96.2431 104.264 90.4786C98.3873 83.6819 93.2543 76.0552 88.1095 64.0971C85.7981 58.7247 84.6038 55.9711 83.7842 54.467C83.7649 54.4835 83.7452 54.5004 83.725 54.5177C83.5207 54.6925 83.2737 54.904 83.0094 55.1238C82.3411 55.6795 81.5085 56.3345 80.4373 57.0487C79.3514 57.7726 78.6286 58.4718 77.7295 59.3416C77.4642 59.5983 77.1835 59.8699 76.8735 60.1613C75.6276 61.3328 73.7198 62.9915 70.7872 63.3914C69.4215 63.5777 67.946 63.4462 66.7108 63.2575C65.4029 63.0576 64.0302 62.7391 62.7448 62.3732C61.4574 62.0067 60.1855 61.5721 59.0773 61.1164C58.0711 60.7026 56.8592 60.1358 55.9328 59.4232C55.343 58.9695 54.5128 58.1844 53.7791 57.4907C53.6836 57.4004 53.5897 57.3116 53.4983 57.2254C52.5811 56.3604 51.5515 55.3987 50.482 54.4907C49.3968 53.5695 48.381 52.7993 47.5123 52.2802C47.4094 52.2187 47.3144 52.1643 47.2271 52.1163C46.7093 52.7444 46.077 53.6577 45.3409 54.8553C44.1639 56.77 42.9995 58.9349 41.8163 61.1348ZM63.3403 92.0581C61.8915 91.1472 60.682 90.3748 59.8205 89.807C57.3849 88.2017 52.9949 86.45 48.471 84.8282C47.1547 84.3563 45.9597 83.9409 44.8313 83.5486C44.0115 83.2635 43.2268 82.9907 42.4562 82.7174C40.9346 82.1776 39.1637 81.5387 38.1381 80.9354C37.0242 80.2802 34.8124 78.8161 32.6572 77.3614C32.3105 78.526 32.2725 79.2875 32.3759 79.8075C32.4874 80.3688 32.9974 81.7006 37.0001 83.5199C40.9955 85.336 44.6394 86.227 48.6427 87.1858C48.7176 87.2037 48.7926 87.2217 48.8677 87.2396C52.7665 88.173 57.0444 89.1972 61.6886 91.3015C62.1993 91.533 62.7517 91.7861 63.3403 92.0581ZM26.7126 68.7449C27.5905 66.7374 28.6108 65.3715 29.5095 64.1866C29.5536 64.1283 29.5977 64.0703 29.6416 64.0125C30.4817 62.906 31.2799 61.8548 32.2103 60.1795C32.7013 59.2955 33.2409 58.2933 33.8086 57.2388C35.0625 54.9095 36.4536 52.3253 37.7621 50.1966C38.726 48.6287 39.8002 47.0419 40.9319 45.7998C41.4991 45.1772 42.197 44.5108 43.0212 43.9746C43.827 43.4504 45.0468 42.8605 46.5666 42.8605C48.7512 42.8605 50.7307 43.8402 52.0752 44.6435C53.5509 45.5252 54.9927 46.6506 56.2393 47.7089C57.5015 48.7804 58.6778 49.882 59.6018 50.7533C59.6925 50.8389 59.78 50.9215 59.8645 51.0012C60.2231 51.3397 60.5273 51.6269 60.7947 51.8734C60.9565 52.0227 61.0873 52.1408 61.192 52.2324C61.2435 52.2775 61.2837 52.3117 61.3139 52.3369C61.3339 52.3535 61.3465 52.3637 61.3526 52.3686C61.3466 52.3636 61.3545 52.368 61.3777 52.381C61.4689 52.4321 61.7978 52.6162 62.4607 52.8888C63.2188 53.2006 64.1696 53.5293 65.1805 53.817C66.1933 54.1053 67.1942 54.332 68.0546 54.4635C68.4826 54.5289 68.8424 54.5655 69.1284 54.5793C69.2694 54.5861 69.3801 54.5867 69.4626 54.5844C69.5031 54.5832 69.5338 54.5814 69.5553 54.5798C69.5769 54.5781 69.5853 54.5769 69.5853 54.5769L69.5895 54.5768C69.6245 54.5766 69.8276 54.5753 70.7795 53.6803C70.934 53.535 71.1107 53.3628 71.3089 53.1697C72.2489 52.2537 73.6716 50.8674 75.5027 49.6467C76.5684 48.9362 77.1059 48.472 77.7046 47.9548C78.0462 47.6597 78.4078 47.3474 78.8987 46.9624C79.4858 46.5019 80.3258 45.9086 81.4344 45.5231C82.6033 45.1165 83.7646 45.0427 84.9029 45.1692C85.7657 45.265 87.0921 45.4805 88.4317 46.3818C89.6825 47.2233 90.52 48.376 91.1648 49.4543C92.341 51.4209 93.7742 54.7528 96.0339 60.0061C96.1153 60.1954 96.1978 60.3871 96.2814 60.5813C101.068 71.7061 105.715 78.5556 110.993 84.66C114.17 88.3338 116.249 88.9501 119.571 89.9347C121.129 90.3967 122.962 90.9399 125.31 91.9182C125.576 92.0292 125.865 92.1477 126.171 92.2729C127.375 92.7662 128.835 93.3645 130.179 94.0279C131.85 94.8521 133.839 96.0042 135.364 97.6657C137.02 99.471 138.209 101.993 137.765 105.091C137.361 107.911 135.695 110.501 133.396 112.915L133.358 112.954L133.32 112.992C130.321 115.991 126.635 117.454 122.92 117.968C121.877 118.112 120.82 118.183 119.758 118.193C116.861 118.345 113.169 118.424 109.389 118.298C104.296 118.127 98.4927 117.573 94.2924 116.038C90.5708 114.678 83.5166 111.421 76.543 108.133C74.1222 106.992 71.6956 105.839 69.3799 104.74C64.8937 102.609 60.8235 100.676 58.0169 99.4045C54.1615 97.6576 50.5968 96.8014 46.5707 95.8372L46.5619 95.8351C42.5825 94.882 38.1772 93.827 33.3188 91.6186C28.4642 89.412 24.6125 86.3821 23.6505 81.5418C22.7906 77.2154 24.6062 72.7832 26.7126 68.7449Z" fill="black"/>
</svg>
