<svg width="161" height="161" viewBox="0 0 161 161" fill="none" xmlns="http://www.w3.org/2000/svg">
<path d="M60.6595 55.8591C58.4205 55.8863 56.0283 56.8622 53.8953 59.0158C46.9358 66.0424 34.4123 66.4016 27.0971 59.0158C25.5987 57.5029 25.5987 55.05 27.0971 53.5372C28.5955 52.0243 31.0249 52.0243 32.5234 53.5372C36.7548 57.8094 44.4187 57.6265 48.469 53.5372C51.8408 50.1328 56.0869 48.1662 60.5671 48.1117C65.0671 48.057 69.4344 49.9367 73.0005 53.5372C77.2319 57.8094 84.8958 57.6265 88.9461 53.5372C92.3179 50.1328 96.564 48.1662 101.044 48.1117C105.544 48.057 109.911 49.9367 113.478 53.5372L113.487 53.5465C117.72 57.8092 125.376 57.6236 129.423 53.5372C130.922 52.0243 133.351 52.0243 134.849 53.5372C136.348 55.0501 136.348 57.5029 134.849 59.0158C127.89 66.0424 115.367 66.4016 108.051 59.0158L108.042 59.0061C105.782 56.7288 103.353 55.8321 101.137 55.8591C98.8976 55.8863 96.5054 56.8622 94.3724 59.0158C87.4129 66.0424 74.8894 66.4016 67.5742 59.0158C65.3116 56.7313 62.8787 55.8321 60.6595 55.8591Z" fill="black"/>
<path d="M60.6595 80.2037C58.4205 80.2309 56.0283 81.2068 53.8953 83.3604C46.9358 90.387 34.4123 90.7462 27.0971 83.3604C25.5987 81.8475 25.5987 79.3947 27.0971 77.8818C28.5955 76.3689 31.0249 76.3689 32.5234 77.8818C36.7548 82.154 44.4187 81.9711 48.469 77.8818C51.8408 74.4774 56.0869 72.5108 60.5671 72.4563C65.0671 72.4016 69.4344 74.2813 73.0005 77.8818C77.2319 82.154 84.8958 81.9711 88.9461 77.8818C92.3179 74.4774 96.564 72.5108 101.044 72.4563C105.541 72.4016 109.906 74.2788 113.47 77.8746L113.478 77.8818C117.709 82.154 125.373 81.9711 129.423 77.8818C130.922 76.3689 133.351 76.3689 134.849 77.8818C136.348 79.3946 136.348 81.8475 134.849 83.3604C127.892 90.3847 115.375 90.7459 108.058 83.3677L108.051 83.3604C105.789 81.0759 103.356 80.1767 101.137 80.2037C98.8976 80.2309 96.5054 81.2068 94.3724 83.3604C87.4129 90.387 74.8894 90.7462 67.5742 83.3604C65.3116 81.0759 62.8787 80.1767 60.6595 80.2037Z" fill="black"/>
<path d="M53.8953 107.705C56.0283 105.551 58.4205 104.576 60.6595 104.548C62.8787 104.521 65.3116 105.421 67.5742 107.705C74.8894 115.091 87.4129 114.732 94.3724 107.705C96.5054 105.551 98.8976 104.576 101.137 104.548C103.353 104.521 105.782 105.418 108.042 107.696C108.045 107.699 108.048 107.702 108.051 107.705C115.367 115.091 127.89 114.732 134.849 107.705C136.348 106.192 136.348 103.739 134.849 102.226C133.351 100.714 130.922 100.714 129.423 102.226C125.376 106.313 117.72 106.498 113.487 102.236C113.484 102.233 113.481 102.23 113.478 102.226C109.911 98.6259 105.544 96.7462 101.044 96.8009C96.564 96.8554 92.3179 98.822 88.9461 102.226C84.8958 106.316 77.2319 106.499 73.0005 102.226C69.4344 98.6259 65.0671 96.7462 60.5671 96.8009C56.0869 96.8554 51.8408 98.822 48.469 102.226C44.4187 106.316 36.7548 106.499 32.5234 102.226C31.0249 100.714 28.5955 100.714 27.0971 102.226C25.5987 103.739 25.5987 106.192 27.0971 107.705C34.4123 115.091 46.9358 114.732 53.8953 107.705Z" fill="black"/>
</svg>
