<svg width="332" height="99" viewBox="0 0 332 99" fill="none" xmlns="http://www.w3.org/2000/svg">
<rect x="276.713" y="11.1299" width="12.825" height="13.0753" rx="6.4125" fill="#9162E4" fill-opacity="0.2"/>
<rect x="276.713" y="36.6179" width="12.825" height="13.0753" rx="6.4125" fill="#9162E4"/>
<rect x="276.713" y="62.1058" width="12.825" height="13.0753" rx="6.4125" fill="#280680"/>
<path d="M299.142 72.9266H298.134V64.5506H301.47C302.206 64.5506 302.778 64.7546 303.186 65.1626C303.602 65.5706 303.81 66.1586 303.81 66.9266C303.81 67.5426 303.666 68.0506 303.378 68.4506C303.098 68.8426 302.682 69.1026 302.13 69.2306L304.05 72.9266H302.91L301.098 69.3266H299.142V72.9266ZM301.47 68.4626C301.87 68.4626 302.178 68.3586 302.394 68.1506C302.618 67.9426 302.73 67.6466 302.73 67.2626V66.6386C302.73 66.2546 302.618 65.9586 302.394 65.7506C302.178 65.5426 301.87 65.4386 301.47 65.4386H299.142V68.4626H301.47ZM309.93 71.9186H309.882C309.818 72.0626 309.738 72.2066 309.642 72.3506C309.554 72.4866 309.442 72.6106 309.306 72.7226C309.17 72.8266 309.006 72.9106 308.814 72.9746C308.622 73.0386 308.398 73.0706 308.142 73.0706C307.502 73.0706 306.994 72.8666 306.618 72.4586C306.242 72.0426 306.054 71.4586 306.054 70.7066V66.7346H307.014V70.5386C307.014 71.6506 307.486 72.2066 308.43 72.2066C308.622 72.2066 308.806 72.1826 308.982 72.1346C309.166 72.0866 309.326 72.0146 309.462 71.9186C309.606 71.8226 309.718 71.7026 309.798 71.5586C309.886 71.4066 309.93 71.2266 309.93 71.0186V66.7346H310.89V72.9266H309.93V71.9186ZM313.334 72.9266V66.7346H314.294V67.7426H314.342C314.494 67.3906 314.706 67.1106 314.978 66.9026C315.258 66.6946 315.63 66.5906 316.094 66.5906C316.734 66.5906 317.238 66.7986 317.606 67.2146C317.982 67.6226 318.17 68.2026 318.17 68.9546V72.9266H317.21V69.1226C317.21 68.0106 316.742 67.4546 315.806 67.4546C315.614 67.4546 315.426 67.4786 315.242 67.5266C315.066 67.5746 314.906 67.6466 314.762 67.7426C314.618 67.8386 314.502 67.9626 314.414 68.1146C314.334 68.2586 314.294 68.4306 314.294 68.6306V72.9266H313.334Z" fill="#280680"/>
<path d="M298.134 39.0626H301.578C302.274 39.0626 302.818 39.2586 303.21 39.6506C303.61 40.0426 303.81 40.5666 303.81 41.2226C303.81 41.5346 303.766 41.7986 303.678 42.0146C303.59 42.2306 303.478 42.4106 303.342 42.5546C303.206 42.6906 303.058 42.7946 302.898 42.8666C302.738 42.9306 302.59 42.9746 302.454 42.9986V43.0706C302.606 43.0786 302.774 43.1186 302.958 43.1906C303.15 43.2626 303.33 43.3786 303.498 43.5386C303.666 43.6906 303.806 43.8906 303.918 44.1386C304.038 44.3786 304.098 44.6706 304.098 45.0146C304.098 45.3586 304.042 45.6786 303.93 45.9746C303.826 46.2706 303.678 46.5266 303.486 46.7426C303.294 46.9586 303.066 47.1306 302.802 47.2586C302.538 47.3786 302.25 47.4386 301.938 47.4386H298.134V39.0626ZM299.142 46.5506H301.626C302.058 46.5506 302.398 46.4426 302.646 46.2266C302.894 46.0026 303.018 45.6786 303.018 45.2546V44.8466C303.018 44.4226 302.894 44.1026 302.646 43.8866C302.398 43.6626 302.058 43.5506 301.626 43.5506H299.142V46.5506ZM299.142 42.6866H301.458C301.858 42.6866 302.17 42.5866 302.394 42.3866C302.618 42.1866 302.73 41.8986 302.73 41.5226V41.1146C302.73 40.7386 302.618 40.4506 302.394 40.2506C302.17 40.0506 301.858 39.9506 301.458 39.9506H299.142V42.6866ZM306.758 39.7946C306.55 39.7946 306.398 39.7466 306.302 39.6506C306.214 39.5466 306.17 39.4146 306.17 39.2546V39.0986C306.17 38.9386 306.214 38.8106 306.302 38.7146C306.398 38.6106 306.55 38.5586 306.758 38.5586C306.966 38.5586 307.114 38.6106 307.202 38.7146C307.298 38.8106 307.346 38.9386 307.346 39.0986V39.2546C307.346 39.4146 307.298 39.5466 307.202 39.6506C307.114 39.7466 306.966 39.7946 306.758 39.7946ZM306.278 41.2466H307.238V47.4386H306.278V41.2466ZM309.678 38.5586H310.638V44.1866H310.686L311.634 43.1306L313.386 41.2466H314.55L312.258 43.6946L314.778 47.4386H313.614L311.562 44.2826L310.638 45.2306V47.4386H309.678V38.5586ZM318.535 47.5826C318.111 47.5826 317.727 47.5066 317.383 47.3546C317.047 47.2026 316.755 46.9866 316.507 46.7066C316.267 46.4186 316.079 46.0786 315.943 45.6866C315.815 45.2866 315.751 44.8386 315.751 44.3426C315.751 43.8546 315.815 43.4106 315.943 43.0106C316.079 42.6106 316.267 42.2706 316.507 41.9906C316.755 41.7026 317.047 41.4826 317.383 41.3306C317.727 41.1786 318.111 41.1026 318.535 41.1026C318.951 41.1026 319.323 41.1786 319.651 41.3306C319.979 41.4826 320.259 41.6946 320.491 41.9666C320.723 42.2306 320.899 42.5466 321.019 42.9146C321.147 43.2826 321.211 43.6866 321.211 44.1266V44.5826H316.759V44.8706C316.759 45.1346 316.799 45.3826 316.879 45.6146C316.967 45.8386 317.087 46.0346 317.239 46.2026C317.399 46.3706 317.591 46.5026 317.815 46.5986C318.047 46.6946 318.307 46.7426 318.595 46.7426C318.987 46.7426 319.327 46.6506 319.615 46.4666C319.911 46.2826 320.139 46.0186 320.299 45.6746L320.983 46.1666C320.783 46.5906 320.471 46.9346 320.047 47.1986C319.623 47.4546 319.119 47.5826 318.535 47.5826ZM318.535 41.9066C318.271 41.9066 318.031 41.9546 317.815 42.0506C317.599 42.1386 317.411 42.2666 317.251 42.4346C317.099 42.6026 316.979 42.8026 316.891 43.0346C316.803 43.2586 316.759 43.5066 316.759 43.7786V43.8626H320.179V43.7306C320.179 43.1786 320.027 42.7386 319.723 42.4106C319.427 42.0746 319.031 41.9066 318.535 41.9066Z" fill="#280680"/>
<path d="M300.486 22.0947C299.806 22.0947 299.226 21.9667 298.746 21.7107C298.266 21.4467 297.858 21.0867 297.522 20.6307L298.266 20.0067C298.562 20.3987 298.89 20.6987 299.25 20.9067C299.61 21.1067 300.034 21.2067 300.522 21.2067C301.122 21.2067 301.578 21.0627 301.89 20.7747C302.21 20.4867 302.37 20.1027 302.37 19.6227C302.37 19.2227 302.25 18.9147 302.01 18.6987C301.77 18.4827 301.374 18.3107 300.822 18.1827L300.138 18.0267C299.37 17.8507 298.782 17.5867 298.374 17.2347C297.974 16.8747 297.774 16.3707 297.774 15.7227C297.774 15.3547 297.842 15.0267 297.978 14.7387C298.114 14.4507 298.302 14.2107 298.542 14.0187C298.79 13.8267 299.082 13.6827 299.418 13.5867C299.762 13.4827 300.138 13.4307 300.546 13.4307C301.178 13.4307 301.718 13.5467 302.166 13.7787C302.622 14.0107 303.006 14.3507 303.318 14.7987L302.562 15.3507C302.33 15.0307 302.05 14.7787 301.722 14.5947C301.394 14.4107 300.986 14.3187 300.498 14.3187C299.962 14.3187 299.538 14.4347 299.226 14.6667C298.922 14.8907 298.77 15.2307 298.77 15.6867C298.77 16.0867 298.898 16.3907 299.154 16.5987C299.418 16.7987 299.814 16.9587 300.342 17.0787L301.026 17.2347C301.85 17.4187 302.446 17.6987 302.814 18.0747C303.182 18.4507 303.366 18.9507 303.366 19.5747C303.366 19.9587 303.298 20.3067 303.162 20.6187C303.034 20.9307 302.846 21.1947 302.598 21.4107C302.35 21.6267 302.046 21.7947 301.686 21.9147C301.334 22.0347 300.934 22.0947 300.486 22.0947ZM304.763 15.7587H305.699L306.359 18.4347L307.019 21.1467H307.043L307.799 18.4347L308.579 15.7587H309.431L310.235 18.4347L311.003 21.1467H311.027L311.663 18.4347L312.335 15.7587H313.235L311.591 21.9507H310.403L309.539 18.9747L308.999 17.0907H308.975L308.447 18.9747L307.583 21.9507H306.419L304.763 15.7587ZM315.502 14.3067C315.294 14.3067 315.142 14.2587 315.046 14.1627C314.958 14.0587 314.914 13.9267 314.914 13.7667V13.6107C314.914 13.4507 314.958 13.3227 315.046 13.2267C315.142 13.1227 315.294 13.0707 315.502 13.0707C315.71 13.0707 315.858 13.1227 315.946 13.2267C316.042 13.3227 316.09 13.4507 316.09 13.6107V13.7667C316.09 13.9267 316.042 14.0587 315.946 14.1627C315.858 14.2587 315.71 14.3067 315.502 14.3067ZM315.022 15.7587H315.982V21.9507H315.022V15.7587ZM318.422 21.9507V15.7587H319.382V16.7667H319.43C319.502 16.6067 319.582 16.4587 319.67 16.3227C319.766 16.1787 319.878 16.0547 320.006 15.9507C320.142 15.8467 320.298 15.7667 320.474 15.7107C320.65 15.6467 320.858 15.6147 321.098 15.6147C321.506 15.6147 321.882 15.7147 322.226 15.9147C322.57 16.1067 322.826 16.4267 322.994 16.8747H323.018C323.13 16.5387 323.338 16.2467 323.642 15.9987C323.954 15.7427 324.374 15.6147 324.902 15.6147C325.534 15.6147 326.026 15.8227 326.378 16.2387C326.738 16.6467 326.918 17.2267 326.918 17.9787V21.9507H325.958V18.1467C325.958 17.5947 325.85 17.1787 325.634 16.8987C325.418 16.6187 325.074 16.4787 324.602 16.4787C324.41 16.4787 324.226 16.5027 324.05 16.5507C323.882 16.5987 323.73 16.6707 323.594 16.7667C323.458 16.8627 323.35 16.9867 323.27 17.1387C323.19 17.2827 323.15 17.4547 323.15 17.6547V21.9507H322.19V18.1467C322.19 17.5947 322.082 17.1787 321.866 16.8987C321.65 16.6187 321.314 16.4787 320.858 16.4787C320.666 16.4787 320.482 16.5027 320.306 16.5507C320.13 16.5987 319.974 16.6707 319.838 16.7667C319.702 16.8627 319.59 16.9867 319.502 17.1387C319.422 17.2827 319.382 17.4547 319.382 17.6547V21.9507H318.422Z" fill="#280680"/>
<rect width="21.0645" height="75" rx="0.5" transform="matrix(-1 0 0 1 21.5645 0.512817)" fill="#9162E4" fill-opacity="0.5"/>
<rect width="21.0645" height="75" rx="0.5" transform="matrix(-1 0 0 1 21.5645 0.512817)" fill="#9162E4" fill-opacity="0.2"/>
<rect width="21.0645" height="32.4627" rx="0.5" transform="matrix(-1 0 0 1 21.5645 43.0501)" fill="#9162E4"/>
<rect width="21.0645" height="32.4627" rx="0.5" transform="matrix(-1 0 0 1 21.5645 43.0501)" fill="#9162E4"/>
<rect width="21.0645" height="19.0299" rx="0.5" transform="matrix(-1 0 0 1 21.5645 56.483)" fill="#280680"/>
<rect width="21.0645" height="60.4478" rx="0.5" transform="matrix(-1 0 0 1 54.2696 15.0651)" fill="#9162E4" fill-opacity="0.5"/>
<rect width="21.0645" height="60.4478" rx="0.5" transform="matrix(-1 0 0 1 54.2696 15.0651)" fill="#9162E4" fill-opacity="0.2"/>
<rect width="21.0645" height="26.164" rx="0.5" transform="matrix(-1 0 0 1 54.2696 49.3489)" fill="#9162E4"/>
<rect width="21.0645" height="26.164" rx="0.5" transform="matrix(-1 0 0 1 54.2696 49.3489)" fill="#9162E4"/>
<rect width="21.0645" height="15.3375" rx="0.5" transform="matrix(-1 0 0 1 54.2696 60.1754)" fill="#280680"/>
<rect width="21.0645" height="55.9701" rx="0.5" transform="matrix(-1 0 0 1 86.9747 19.5427)" fill="#9162E4" fill-opacity="0.5"/>
<rect width="21.0645" height="55.9701" rx="0.5" transform="matrix(-1 0 0 1 86.9747 19.5427)" fill="#9162E4" fill-opacity="0.2"/>
<rect width="21.0645" height="24.2259" rx="0.5" transform="matrix(-1 0 0 1 86.9747 51.2869)" fill="#9162E4"/>
<rect width="21.0645" height="24.2259" rx="0.5" transform="matrix(-1 0 0 1 86.9747 51.2869)" fill="#9162E4"/>
<rect width="21.0645" height="14.2014" rx="0.5" transform="matrix(-1 0 0 1 86.9747 61.3114)" fill="#280680"/>
<rect width="21.0645" height="66.0448" rx="0.5" transform="matrix(-1 0 0 1 119.68 9.46802)" fill="#9162E4" fill-opacity="0.5"/>
<rect width="21.0645" height="66.0448" rx="0.5" transform="matrix(-1 0 0 1 119.68 9.46802)" fill="#9162E4" fill-opacity="0.2"/>
<rect width="21.0645" height="28.5865" rx="0.5" transform="matrix(-1 0 0 1 119.68 46.9263)" fill="#9162E4"/>
<rect width="21.0645" height="28.5865" rx="0.5" transform="matrix(-1 0 0 1 119.68 46.9263)" fill="#9162E4"/>
<rect width="21.0645" height="16.7576" rx="0.5" transform="matrix(-1 0 0 1 119.68 58.7552)" fill="#280680"/>
<rect width="21.0645" height="44.7761" rx="0.5" transform="matrix(-1 0 0 1 152.385 30.7367)" fill="#9162E4" fill-opacity="0.5"/>
<rect width="21.0645" height="44.7761" rx="0.5" transform="matrix(-1 0 0 1 152.385 30.7367)" fill="#9162E4" fill-opacity="0.2"/>
<rect width="21.0645" height="19.3807" rx="0.5" transform="matrix(-1 0 0 1 152.385 56.1321)" fill="#9162E4"/>
<rect width="21.0645" height="19.3807" rx="0.5" transform="matrix(-1 0 0 1 152.385 56.1321)" fill="#9162E4"/>
<rect width="21.0645" height="11.3611" rx="0.5" transform="matrix(-1 0 0 1 152.385 64.1517)" fill="#280680"/>
<rect width="21.0645" height="55.9701" rx="0.5" transform="matrix(-1 0 0 1 185.09 19.5427)" fill="#9162E4" fill-opacity="0.5"/>
<rect width="21.0645" height="55.9701" rx="0.5" transform="matrix(-1 0 0 1 185.09 19.5427)" fill="#9162E4" fill-opacity="0.2"/>
<rect width="21.0645" height="24.2259" rx="0.5" transform="matrix(-1 0 0 1 185.09 51.2869)" fill="#9162E4"/>
<rect width="21.0645" height="24.2259" rx="0.5" transform="matrix(-1 0 0 1 185.09 51.2869)" fill="#9162E4"/>
<rect width="21.0645" height="14.2014" rx="0.5" transform="matrix(-1 0 0 1 185.09 61.3114)" fill="#280680"/>
<rect width="21.0645" height="69.403" rx="0.5" transform="matrix(-1 0 0 1 217.795 6.1098)" fill="#9162E4" fill-opacity="0.5"/>
<rect width="21.0645" height="69.403" rx="0.5" transform="matrix(-1 0 0 1 217.795 6.1098)" fill="#9162E4" fill-opacity="0.2"/>
<rect width="21.0645" height="30.0401" rx="0.5" transform="matrix(-1 0 0 1 217.795 45.4727)" fill="#9162E4"/>
<rect width="21.0645" height="30.0401" rx="0.5" transform="matrix(-1 0 0 1 217.795 45.4727)" fill="#9162E4"/>
<rect width="21.0645" height="17.6097" rx="0.5" transform="matrix(-1 0 0 1 217.795 57.9031)" fill="#280680"/>
<rect width="21.0645" height="41.4179" rx="0.5" transform="matrix(-1 0 0 1 250.5 34.0949)" fill="#9162E4" fill-opacity="0.5"/>
<rect width="21.0645" height="41.4179" rx="0.5" transform="matrix(-1 0 0 1 250.5 34.0949)" fill="#9162E4" fill-opacity="0.2"/>
<rect width="21.0645" height="17.9272" rx="0.5" transform="matrix(-1 0 0 1 250.5 57.5857)" fill="#9162E4"/>
<rect width="21.0645" height="17.9272" rx="0.5" transform="matrix(-1 0 0 1 250.5 57.5857)" fill="#9162E4"/>
<rect width="21.0645" height="10.509" rx="0.5" transform="matrix(-1 0 0 1 250.5 65.0038)" fill="#280680"/>
<path d="M42.4008 85.9816H43.1274L46.2797 93.4933L49.4379 85.9816H50.1586L46.5551 94.5128H46.0043L42.4008 85.9816ZM42.1782 85.9816H42.8168L42.893 90.7863V94.5128H42.1782V85.9816ZM49.7543 85.9816H50.393V94.5128H49.6723V90.7863L49.7543 85.9816ZM56.6524 93.3761V90.1066C56.6524 89.8058 56.5899 89.546 56.4649 89.3273C56.3399 89.1085 56.1563 88.9406 55.9141 88.8234C55.6719 88.7062 55.3731 88.6476 55.0176 88.6476C54.6895 88.6476 54.3965 88.7062 54.1387 88.8234C53.8848 88.9366 53.6836 89.0909 53.5352 89.2863C53.3906 89.4777 53.3184 89.6906 53.3184 89.9249L52.6153 89.9191C52.6153 89.6808 52.6739 89.4503 52.791 89.2277C52.9082 89.005 53.0742 88.8058 53.2891 88.63C53.5039 88.4542 53.7598 88.3156 54.0567 88.214C54.3574 88.1085 54.6875 88.0558 55.0469 88.0558C55.5 88.0558 55.8985 88.132 56.2422 88.2843C56.5899 88.4366 56.8614 88.6652 57.0567 88.9698C57.252 89.2745 57.3496 89.6573 57.3496 90.1183V93.1827C57.3496 93.4015 57.3653 93.6281 57.3965 93.8624C57.4317 94.0968 57.4805 94.2902 57.543 94.4425V94.5128H56.7989C56.752 94.3722 56.7149 94.1964 56.6875 93.9855C56.6641 93.7706 56.6524 93.5675 56.6524 93.3761ZM56.8164 90.8214L56.8281 91.3605H55.4512C55.0918 91.3605 54.7696 91.3937 54.4844 91.4601C54.2031 91.5226 53.9649 91.6163 53.7696 91.7413C53.5742 91.8624 53.4239 92.0089 53.3184 92.1808C53.2168 92.3527 53.166 92.548 53.166 92.7667C53.166 92.9933 53.2227 93.2003 53.336 93.3878C53.4531 93.5753 53.6172 93.7257 53.8281 93.839C54.043 93.9484 54.2969 94.0031 54.5899 94.0031C54.9805 94.0031 55.3242 93.9308 55.6211 93.7863C55.9219 93.6417 56.1699 93.4523 56.3653 93.2179C56.5606 92.9835 56.6914 92.7277 56.7578 92.4503L57.0625 92.8546C57.0117 93.0499 56.918 93.2511 56.7813 93.4581C56.6485 93.6613 56.4746 93.8527 56.2598 94.0323C56.0449 94.2081 55.791 94.3527 55.4981 94.4659C55.209 94.5753 54.8809 94.63 54.5137 94.63C54.0996 94.63 53.7383 94.5519 53.4297 94.3956C53.125 94.2394 52.8867 94.0265 52.7149 93.757C52.5469 93.4835 52.4629 93.1749 52.4629 92.8312C52.4629 92.5187 52.5293 92.2394 52.6621 91.9933C52.7949 91.7433 52.9864 91.5323 53.2364 91.3605C53.4903 91.1847 53.7949 91.0519 54.1504 90.962C54.5098 90.8683 54.9121 90.8214 55.3574 90.8214H56.8164ZM60.3278 89.2218V94.5128H59.6305V88.173H60.3102L60.3278 89.2218ZM62.5719 88.1261L62.5543 88.7706C62.4762 88.7589 62.4 88.7491 62.3258 88.7413C62.2516 88.7335 62.1715 88.7296 62.0856 88.7296C61.7809 88.7296 61.5133 88.7863 61.2828 88.8995C61.0563 89.0089 60.8649 89.1632 60.7086 89.3624C60.5524 89.5577 60.4332 89.7882 60.3512 90.0538C60.2692 90.3156 60.2223 90.5968 60.2106 90.8976L59.9528 90.9972C59.9528 90.5831 59.9957 90.1984 60.0817 89.8429C60.1676 89.4874 60.2985 89.1769 60.4742 88.9113C60.6539 88.6417 60.8785 88.4327 61.1481 88.2843C61.4215 88.132 61.7418 88.0558 62.109 88.0558C62.1989 88.0558 62.2867 88.0636 62.3727 88.0792C62.4625 88.0909 62.5289 88.1066 62.5719 88.1261ZM66.2942 94.0265C66.591 94.0265 66.8684 93.9718 67.1262 93.8624C67.3879 93.7491 67.6028 93.5831 67.7707 93.3644C67.9426 93.1417 68.0403 92.8702 68.0637 92.5499H68.7317C68.7121 92.9523 68.5891 93.3116 68.3625 93.6281C68.1399 93.9406 67.8469 94.1866 67.4836 94.3663C67.1242 94.5421 66.7278 94.63 66.2942 94.63C65.8528 94.63 65.4621 94.5499 65.1223 94.3898C64.7864 94.2296 64.5051 94.007 64.2785 93.7218C64.052 93.4327 63.8801 93.0968 63.7629 92.714C63.6496 92.3273 63.593 91.9113 63.593 91.4659V91.2198C63.593 90.7745 63.6496 90.3605 63.7629 89.9777C63.8801 89.5909 64.052 89.255 64.2785 88.9698C64.5051 88.6808 64.7864 88.4562 65.1223 88.296C65.4582 88.1359 65.8469 88.0558 66.2883 88.0558C66.7414 88.0558 67.1477 88.1476 67.5071 88.3312C67.8703 88.5148 68.1594 88.7745 68.3742 89.1105C68.593 89.4464 68.7121 89.8448 68.7317 90.3058H68.0637C68.0442 89.9659 67.9543 89.673 67.7942 89.4269C67.634 89.1808 67.4231 88.9913 67.1614 88.8585C66.8996 88.7257 66.6086 88.6593 66.2883 88.6593C65.9289 88.6593 65.6223 88.7296 65.3684 88.8702C65.1145 89.007 64.9074 89.1964 64.7473 89.4386C64.591 89.6769 64.4758 89.9503 64.4016 90.2589C64.3274 90.5636 64.2903 90.8839 64.2903 91.2198V91.4659C64.2903 91.8058 64.3254 92.13 64.3957 92.4386C64.4699 92.7433 64.5852 93.0148 64.7414 93.2531C64.9016 93.4913 65.1086 93.6808 65.3625 93.8214C65.6203 93.9581 65.9309 94.0265 66.2942 94.0265ZM71.241 85.5128V94.5128H70.5438V85.5128H71.241ZM71.0828 90.9503L70.7723 90.7745C70.7957 90.3995 70.8719 90.048 71.0008 89.7198C71.1297 89.3917 71.3035 89.1027 71.5223 88.8527C71.7449 88.6027 72.0047 88.4073 72.3016 88.2667C72.6024 88.1261 72.9344 88.0558 73.2977 88.0558C73.6141 88.0558 73.8973 88.0988 74.1473 88.1847C74.3973 88.2706 74.6102 88.4073 74.786 88.5948C74.9617 88.7823 75.0946 89.0226 75.1844 89.3156C75.2782 89.6085 75.325 89.9659 75.325 90.3878V94.5128H74.6219V90.382C74.6219 89.9445 74.5614 89.6027 74.4403 89.3566C74.3192 89.1066 74.1473 88.9288 73.9246 88.8234C73.702 88.7179 73.4383 88.6652 73.1336 88.6652C72.7977 88.6652 72.5028 88.7394 72.2489 88.8878C71.9989 89.0323 71.7879 89.2218 71.616 89.4562C71.4481 89.6866 71.3192 89.9347 71.2293 90.2003C71.1395 90.462 71.0907 90.712 71.0828 90.9503Z" fill="black"/>
<line x1="126.119" y1="86.5128" x2="126.119" y2="94.5128" stroke="black"/>
<path d="M184.919 86.4913L181.966 94.5128H181.216L184.439 85.9816H184.96L184.919 86.4913ZM187.603 94.5128L184.644 86.4913L184.603 85.9816H185.124L188.353 94.5128H187.603ZM187.075 91.5011V92.1222H182.546V91.5011H187.075ZM190.546 89.3917V96.9503H189.842V88.173H190.499L190.546 89.3917ZM194.952 91.2843V91.4073C194.952 91.88 194.897 92.3136 194.788 92.7081C194.678 93.1027 194.52 93.4445 194.313 93.7335C194.11 94.0187 193.858 94.2394 193.557 94.3956C193.257 94.5519 192.915 94.63 192.532 94.63C192.153 94.63 191.815 94.5714 191.518 94.4542C191.221 94.337 190.966 94.171 190.751 93.9562C190.54 93.7374 190.37 93.4835 190.241 93.1945C190.116 92.9015 190.028 92.5812 189.977 92.2335V90.6105C190.036 90.2277 190.132 89.88 190.264 89.5675C190.397 89.255 190.567 88.9855 190.774 88.7589C190.985 88.5323 191.235 88.3585 191.524 88.2374C191.813 88.1163 192.143 88.0558 192.514 88.0558C192.901 88.0558 193.245 88.132 193.546 88.2843C193.85 88.4327 194.106 88.6495 194.313 88.9347C194.524 89.2159 194.682 89.5558 194.788 89.9542C194.897 90.3488 194.952 90.7921 194.952 91.2843ZM194.249 91.4073V91.2843C194.249 90.9132 194.21 90.5695 194.132 90.2531C194.057 89.9366 193.942 89.6613 193.786 89.4269C193.634 89.1886 193.438 89.0031 193.2 88.8702C192.966 88.7374 192.686 88.671 192.362 88.671C192.026 88.671 191.739 88.7277 191.501 88.8409C191.266 88.9503 191.071 89.0968 190.915 89.2804C190.759 89.4601 190.635 89.6573 190.546 89.8722C190.456 90.087 190.389 90.298 190.346 90.505V92.3741C190.421 92.671 190.54 92.9464 190.704 93.2003C190.868 93.4503 191.087 93.6515 191.36 93.8038C191.637 93.9523 191.975 94.0265 192.374 94.0265C192.694 94.0265 192.971 93.9601 193.206 93.8273C193.44 93.6945 193.634 93.5089 193.786 93.2706C193.942 93.0323 194.057 92.755 194.132 92.4386C194.21 92.1222 194.249 91.7784 194.249 91.4073ZM197.608 89.2218V94.5128H196.91V88.173H197.59L197.608 89.2218ZM199.852 88.1261L199.834 88.7706C199.756 88.7589 199.68 88.7491 199.606 88.7413C199.532 88.7335 199.451 88.7296 199.366 88.7296C199.061 88.7296 198.793 88.7863 198.563 88.8995C198.336 89.0089 198.145 89.1632 197.989 89.3624C197.832 89.5577 197.713 89.7882 197.631 90.0538C197.549 90.3156 197.502 90.5968 197.491 90.8976L197.233 90.9972C197.233 90.5831 197.276 90.1984 197.362 89.8429C197.448 89.4874 197.578 89.1769 197.754 88.9113C197.934 88.6417 198.159 88.4327 198.428 88.2843C198.701 88.132 199.022 88.0558 199.389 88.0558C199.479 88.0558 199.567 88.0636 199.653 88.0792C199.742 88.0909 199.809 88.1066 199.852 88.1261ZM202.133 88.173V94.5128H201.435V88.173H202.133ZM201.312 86.339C201.312 86.2062 201.353 86.0948 201.435 86.005C201.521 85.9113 201.639 85.8644 201.787 85.8644C201.935 85.8644 202.053 85.9113 202.139 86.005C202.228 86.0948 202.273 86.2062 202.273 86.339C202.273 86.4679 202.228 86.5792 202.139 86.673C202.053 86.7628 201.935 86.8077 201.787 86.8077C201.639 86.8077 201.521 86.7628 201.435 86.673C201.353 86.5792 201.312 86.4679 201.312 86.339ZM205.228 85.5128V94.5128H204.531V85.5128H205.228Z" fill="black"/>
</svg>
